<?xml version="1.0" standalone="no"?>
<!DOCTYPE svg PUBLIC "-//W3C//DTD SVG 20010904//EN"
 "http://www.w3.org/TR/2001/REC-SVG-20010904/DTD/svg10.dtd">
<svg version="1.0" xmlns="http://www.w3.org/2000/svg"
 width="112.000000pt" height="112.000000pt" viewBox="0 0 112.000000 112.000000"
 preserveAspectRatio="xMidYMid meet">
<metadata>
Created by potrace 1.11, written by Peter Selinger 2001-2013
</metadata>
<g transform="translate(0.000000,112.000000) scale(0.100000,-0.100000)"
fill="#000000" stroke="none">
<path d="M460 1078 c-16 -38 -66 -206 -100 -340 l-13 -48 -53 0 c-29 0 -56 -4
-59 -10 -3 -5 -19 -10 -35 -10 -30 0 -42 -12 -47 -44 -3 -16 -1 -17 12 -6 20
17 32 5 15 -16 -10 -11 -23 -14 -46 -10 -29 6 -36 2 -83 -53 l-51 -59 0 -165
c0 -153 1 -165 18 -161 9 3 28 1 41 -4 22 -8 22 -9 -18 -35 -33 -22 -41 -33
-41 -57 0 -17 2 -30 5 -30 3 0 32 16 63 37 51 32 65 37 132 39 189 7 223 12
241 36 10 12 21 38 24 57 3 18 17 56 30 85 13 28 33 84 45 123 19 63 25 72 43
69 22 -3 22 -6 22 -213 0 -205 0 -210 20 -205 18 5 19 4 5 -12 -13 -16 -12
-20 5 -32 10 -8 27 -14 37 -14 18 0 58 29 58 42 0 5 9 17 21 29 18 18 24 19
54 9 18 -6 84 -15 147 -20 62 -5 125 -12 141 -16 24 -6 27 -4 27 19 0 22 -6
27 -52 37 l-51 13 37 18 c21 10 45 15 54 12 13 -4 14 -3 3 5 -9 6 -10 12 -2
16 18 11 12 176 -8 206 -9 14 -23 37 -30 52 -23 45 -107 129 -124 122 -9 -3
-27 2 -41 11 -14 9 -26 15 -28 13 -2 -1 -13 4 -25 13 -13 9 -20 19 -16 22 3 4
1 7 -5 7 -5 0 -13 -6 -15 -12 -7 -16 -3 7 28 195 29 169 31 243 11 292 l-15
35 -181 0 -181 0 -19 -42z m210 -131 c34 -16 40 -26 33 -58 -3 -18 0 -28 11
-32 29 -12 17 -36 -24 -48 l-40 -12 0 -64 c0 -56 -2 -63 -20 -63 -13 0 -20 -7
-20 -20 0 -14 -5 -18 -17 -13 -15 5 -14 3 2 -10 14 -12 16 -16 6 -17 -11 0 -8
-6 7 -20 12 -12 22 -22 22 -24 0 -3 -46 -1 -72 3 -4 1 -14 14 -23 30 -14 28
-14 31 5 44 20 14 20 15 3 22 -16 6 -15 8 6 16 13 5 21 12 18 15 -10 10 -46
-16 -41 -30 3 -8 1 -17 -4 -20 -13 -8 -45 98 -38 122 11 34 43 55 71 48 15 -4
23 -11 19 -17 -3 -6 -15 -9 -25 -6 -25 7 -24 -9 0 -23 27 -14 37 -13 55 6 27
26 18 41 -34 60 -66 24 -64 39 8 95 38 29 56 32 92 16z m60 -236 c0 -28 -17
-35 -29 -12 -15 27 -14 31 9 31 13 0 20 -7 20 -19z m370 -481 c0 -5 -4 -10
-10 -10 -5 0 -10 5 -10 10 0 6 5 10 10 10 6 0 10 -4 10 -10z m-20 -40 c0 -5
-5 -10 -11 -10 -5 0 -7 5 -4 10 3 6 8 10 11 10 2 0 4 -4 4 -10z m-353 -63 c-6
-19 -23 -18 -23 2 0 11 5 17 14 14 7 -3 11 -10 9 -16z m176 -22 c-3 -8 -9 -15
-14 -15 -10 0 -12 24 -3 33 11 11 24 -3 17 -18z m-229 -22 c-8 -9 -18 -12 -22
-8 -4 4 -2 10 5 12 7 2 9 12 6 21 -6 15 -5 15 10 4 15 -13 15 -16 1 -29z m66
7 c0 -5 -10 -10 -22 -9 -22 0 -22 1 -3 9 11 5 21 9 23 9 1 1 2 -3 2 -9z m-20
-30 c0 -5 -2 -10 -4 -10 -3 0 -8 5 -11 10 -3 6 -1 10 4 10 6 0 11 -4 11 -10z"/>
<path d="M576 278 c-3 -13 -5 -39 -5 -58 1 -28 3 -25 10 19 9 55 6 80 -5 39z"/>
<path d="M566 168 c-2 -7 -9 -29 -15 -48 -25 -70 -25 -70 0 -70 23 0 24 3 24
65 0 64 -2 78 -9 53z"/>
<path d="M475 40 c-22 -10 -56 -23 -75 -28 l-35 -10 32 -1 c18 -1 52 9 75 21
51 26 53 27 47 33 -3 2 -23 -4 -44 -15z"/>
<path d="M288 35 c-1 -2 -16 -6 -33 -9 -16 -3 -46 -10 -65 -15 -33 -8 -31 -9
25 -10 62 0 122 20 92 32 -8 3 -17 4 -19 2z"/>
</g>
</svg>
